<?xml version="1.0" encoding="UTF-8" standalone="no"?>
<!-- Svg Vector Icons : http://www.onlinewebfonts.com/icon -->

<svg
   xmlns:dc="http://purl.org/dc/elements/1.1/"
   xmlns:cc="http://creativecommons.org/ns#"
   xmlns:rdf="http://www.w3.org/1999/02/22-rdf-syntax-ns#"
   xmlns:svg="http://www.w3.org/2000/svg"
   xmlns="http://www.w3.org/2000/svg"
   xmlns:sodipodi="http://sodipodi.sourceforge.net/DTD/sodipodi-0.dtd"
   xmlns:inkscape="http://www.inkscape.org/namespaces/inkscape"
   version="1.1"
   x="0px"
   y="0px"
   viewBox="0 0 1000 1000"
   enable-background="new 0 0 1000 1000"
   xml:space="preserve"
   id="svg10"
   sodipodi:docname="pantalla-completa.svg"
   inkscape:version="0.92.4 (5da689c313, 2019-01-14)"><defs
   id="defs14" /><sodipodi:namedview
   pagecolor="#ffffff"
   bordercolor="#666666"
   borderopacity="1"
   objecttolerance="10"
   gridtolerance="10"
   guidetolerance="10"
   inkscape:pageopacity="0"
   inkscape:pageshadow="2"
   inkscape:window-width="1366"
   inkscape:window-height="705"
   id="namedview12"
   showgrid="false"
   inkscape:zoom="0.472"
   inkscape:cx="449.45185"
   inkscape:cy="516.60468"
   inkscape:window-x="-8"
   inkscape:window-y="-8"
   inkscape:window-maximized="1"
   inkscape:current-layer="svg10" />
<metadata
   id="metadata2"> Svg Vector Icons : http://www.onlinewebfonts.com/icon <rdf:RDF><cc:Work
     rdf:about=""><dc:format>image/svg+xml</dc:format><dc:type
       rdf:resource="http://purl.org/dc/dcmitype/StillImage" /></cc:Work></rdf:RDF></metadata>
<g
   id="g8"
   style="fill:#1964ff;fill-opacity:1;paint-order:stroke fill markers;stroke-width:1;stroke-miterlimit:4;stroke-dasharray:none"><path
     d="M885,80c21,0,35,14,35,35v770c0,21-14,35-35,35H115c-21,0-35-14-35-35V115c0-21,14-35,35-35H885 M885,10H115C55.5,10,10,55.5,10,115v770c0,59.5,45.5,105,105,105h770c59.5,0,105-45.5,105-105V115C990,55.5,944.5,10,885,10L885,10z"
     id="path4"
     style="fill:#ffffff;fill-opacity:1;stroke:#000000;stroke-opacity:0.97989953;stroke-width:0;stroke-miterlimit:4;stroke-dasharray:none;paint-order:fill markers stroke;stroke-dashoffset:1;stroke-linecap:square" /><path
     d="M570,185l87.5,87.5L535,395l70,70l122.5-122.5L815,430V185H570z M395,535L272.5,657.5L185,570v245h245l-87.5-87.5L465,605L395,535z"
     id="path6"
     style="fill:#ffffff;fill-opacity:1;paint-order:normal;stroke-width:5;stroke-miterlimit:4;stroke-dasharray:none" /></g>
</svg>